<svg id="G" xmlns="http://www.w3.org/2000/svg" width="36.383" height="37.137" viewBox="0 0 36.383 37.137">
  <path id="Path_2664" data-name="Path 2664" d="M4020.471,957.428a13.691,13.691,0,0,1-2.865,3.485c-6.465-5.035-5.24-4.064-5.833-4.594a9.044,9.044,0,0,0,3.529-5.15c.122-.406.084-.564-.418-.559-2.991.025-5.982.013-8.973.013-.634,0-.634,0-.634-.656,0-2.028.01-4.055-.009-6.082,0-.391.065-.541.506-.54q8.275.024,16.551.005c.3,0,.485.022.537.384A20.364,20.364,0,0,1,4020.471,957.428Z" transform="translate(-3986.749 -928.285)" fill="#6689c9" fill-rule="evenodd"/>
  <path id="Path_2665" data-name="Path 2665" d="M3767.106,1068.5a15.433,15.433,0,0,1-6.954,3.8,18.7,18.7,0,0,1-17.006-3.432,17.241,17.241,0,0,1-4.917-6.128l6.063-4.708a12.444,12.444,0,0,0,2.274,3.882,11.352,11.352,0,0,0,14.705,1.99C3761.839,1064.408,3760.631,1063.454,3767.106,1068.5Z" transform="translate(-3736.249 -1035.868)" fill="#4db74b" fill-rule="evenodd"/>
  <path id="Path_2666" data-name="Path 2666" d="M3714.294,877.477l-6.063,4.708a18.377,18.377,0,0,1,.016-16.627c6.711,5.169,5.691,4.4,6.093,4.66A11.735,11.735,0,0,0,3714.294,877.477Z" transform="translate(-3706.251 -855.315)" fill="#ffcd05" fill-rule="evenodd"/>
  <path id="Path_2667" data-name="Path 2667" d="M3767.155,705.336c-5.192,5.085-4.794,5.048-5.171,4.7-5.213-4.777-14.5-2.963-17.415,5.021-.4-.261.648.533-6.094-4.66a18.367,18.367,0,0,1,13.433-9.969,17.927,17.927,0,0,1,15.2,4.228C3767.389,704.9,3767.459,705.04,3767.155,705.336Z" transform="translate(-3736.48 -700.159)" fill="#e22f31" fill-rule="evenodd"/>
</svg>
